# xmcd
#
# Track frame offsets: 
#        150
#        1696
#        14536
#        26536
#        39553
#        42373
#        54459
#        66830
#        81195
#        92654
#        104541
#        117416
#        128768
#        140143
#        150680
#        162517
#        176324
#        186831
#        198813
#        210325
#        223792
#        237072
#        252186
#        264834
#        274659
#        287011
#        299266
#        312064
#        326777
#        337940
#        343816
#
# Disc length: 4723 seconds
#
# Revision: 0
# Processed by: cddbd v1.5.2PL0 Copyright (c) Steve Scherf et al.
# Submitted via: ExactAudioCopyFreeDBPlugin 1.0
#
DISCID=bd12711f
DTITLE=Various Artist - Battleground Korea [CD1)
DYEAR=2018
DGENRE=Country
TTITLE0=U.N. Spokesperson - War Starts In Korea
TTITLE1=Lightnin' Hopkins - War News Blues
TTITLE2=Sunshine Boys Quartet - God Please Protect America
TTITLE3=Wally Fowler and His Oakridge Quartet - Pray, Pray, Pray (For Th
TTITLE3=e U.S.A.)
TTITLE4=President Truman - President Truman Speaks On War In Korea
TTITLE5=Hank Harral and His Palomino Cowhands - When They Raised The U.N
TTITLE5=Flag In Korea
TTITLE6=The Four Barons - Got To Go Back Again
TTITLE7=Sunnyland Slim and His Trio - Back To Korea Blues
TTITLE8=Harry Choates and His Fiddle - Korea, Here We Come
TTITLE9=Vince Mondi - Goodbye Maria (I'm Off To Korea)
TTITLE10=Paul Mims - My New Career Is In Korea
TTITLE11=Vance Brothers - Draftboard Blues
TTITLE12=Ray Anderson and Tennessee Mountaineers - Draft Board Blues
TTITLE13=Arkie Shibley and His Mountain Dew Boys - Uncle Sam Has Called 
TTITLE13=My Number
TTITLE14=Smilin' Eddie Varnado and The Delta Ranch Hands - I'm A Soldier
TTITLE14=Boy Again
TTITLE15=Harvey Stone - Here We Go Again
TTITLE16=Fats Domino - Korea Blues
TTITLE17=Clifford Blivens and The Johnny Otis Band - Korea Blues
TTITLE18=Willie Brown - Korea Blues
TTITLE19=Max Bailey - Sorry Girl Blues
TTITLE20=B.B. King - Questionnaire Blues
TTITLE21=John Lee Hooker (Johnny Williams) - Questionnaire Blues
TTITLE22=Sonny Thompson - Uncle Sam Blues
TTITLE23=Lloyd Price and His Orchestra - Mailman Blues
TTITLE24=Big Boy Crudup - Mr. So And So
TTITLE25=Bob Newman - Greetings
TTITLE26=Tani Allen and His Tennessee Pals - I'm Back In The Army
TTITLE27=Cactus Pryor and His Pricklypears - (In Again, Out Again) Packi
TTITLE27=ng Up My Barracks Bag Blues
TTITLE28=Montana Slim (Wilf Carter, The Singing Cowboy) - The K.P. Blu
TTITLE28=es
TTITLE29=Vic Damone and Vaughn Monroe - Message From Vic Damone
TTITLE30=The Rockets and Hugo Winterhalter and His Orchestra - The Girls A
TTITLE30=re Marching
EXTD=
EXTT0=
EXTT1=
EXTT2=
EXTT3=
EXTT4=
EXTT5=
EXTT6=
EXTT7=
EXTT8=
EXTT9=
EXTT10=
EXTT11=
EXTT12=
EXTT13=
EXTT14=
EXTT15=
EXTT16=
EXTT17=
EXTT18=
EXTT19=
EXTT20=
EXTT21=
EXTT22=
EXTT23=
EXTT24=
EXTT25=
EXTT26=
EXTT27=
EXTT28=
EXTT29=
EXTT30=
PLAYORDER=
